<mxfile host="app.diagrams.net" modified="2024-03-26T13:23:58.984Z" agent="Mozilla/5.0 (Windows NT 10.0; Win64; x64) AppleWebKit/537.36 (KHTML, like Gecko) Chrome/123.0.0.0 Safari/537.36" version="24.1.0" etag="tOyPg9vyT2Fbzq6o1AyU" type="github">
  <diagram name="Seite-1" id="xVRZEkY9lGT6pbuFE2Ti">
    <mxGraphModel>
      <root>
        <mxCell id="0" />
        <mxCell id="1" parent="0" />
      </root>
    </mxGraphModel>
  </diagram>
</mxfile>
